<svg xmlns="http://www.w3.org/2000/svg" xmlns:svg="http://www.w3.org/2000/svg" xmlns:xlink="http://www.w3.org/1999/xlink" id="svg8" width="210mm" height="297mm" enable-background="new" version="1.1" viewBox="0 0 210 297"><defs id="defs2"><linearGradient id="linearGradient933"><stop style="stop-color:#009dca;stop-opacity:1" id="stop929" offset="0"/><stop style="stop-color:#009dca;stop-opacity:0" id="stop931" offset="1"/></linearGradient><linearGradient id="linearGradient935" x1="319" x2="375" y1="233.52" y2="164.02" gradientUnits="userSpaceOnUse" xlink:href="#linearGradient933"/></defs><metadata id="metadata5"/><g id="layer1"><path style="color:#000;font-style:normal;font-variant:normal;font-weight:400;font-stretch:normal;font-size:medium;line-height:normal;font-family:sans-serif;font-variant-ligatures:normal;font-variant-position:normal;font-variant-caps:normal;font-variant-numeric:normal;font-variant-alternates:normal;font-feature-settings:normal;text-indent:0;text-align:start;text-decoration:none;text-decoration-line:none;text-decoration-style:solid;text-decoration-color:#000;letter-spacing:normal;word-spacing:normal;text-transform:none;writing-mode:lr-tb;direction:ltr;text-orientation:mixed;dominant-baseline:auto;baseline-shift:baseline;text-anchor:start;white-space:normal;shape-padding:0;clip-rule:nonzero;display:inline;overflow:visible;visibility:visible;opacity:1;isolation:auto;mix-blend-mode:normal;color-interpolation:sRGB;color-interpolation-filters:linearRGB;solid-color:#000;solid-opacity:1;vector-effect:none;fill:url(#linearGradient935);fill-opacity:1;fill-rule:nonzero;stroke:none;stroke-width:15.87401485;stroke-linecap:square;stroke-linejoin:round;stroke-miterlimit:4;stroke-dasharray:none;stroke-dashoffset:0;stroke-opacity:1;paint-order:normal;color-rendering:auto;image-rendering:auto;shape-rendering:auto;text-rendering:auto;enable-background:accumulate" id="path823" d="m 299.75195,136.96875 c -15.52399,0.13173 -31.04546,5.79853 -43.29687,17.12891 -26.13634,24.17146 -27.73983,65.19374 -3.56836,91.33007 21.55015,23.30194 56.48956,27.08614 82.33789,10.50782 l 92.97851,100.53711 16.61329,-15.36328 -92.97852,-100.53516 c 18.54545,-24.47666 17.49605,-59.60563 -4.05469,-82.9082 -12.84109,-13.88493 -30.43739,-20.84657 -48.03125,-20.69727 z m 0.1543,15.77539 c 13.24176,-0.11909 26.47798,5.15834 36.22461,15.69727 18.34659,19.83796 17.14657,50.55379 -2.69141,68.90039 -19.83797,18.34659 -50.55379,17.14655 -68.90039,-2.69141 -18.3466,-19.83797 -17.1407,-50.54793 2.69727,-68.89453 9.29905,-8.59997 20.98601,-12.90664 32.66992,-13.01172 z" transform="scale(0.26458333)"/></g></svg>